<?xml version="1.0" standalone="no"?><!DOCTYPE svg PUBLIC "-//W3C//DTD SVG 1.1//EN" "http://www.w3.org/Graphics/SVG/1.1/DTD/svg11.dtd"><svg t="1666086669408" class="icon" viewBox="0 0 1024 1024" version="1.1" xmlns="http://www.w3.org/2000/svg" p-id="3248" xmlns:xlink="http://www.w3.org/1999/xlink" width="200" height="200"><path d="M1019.2 720c-17.6-94.4-51.2-153.6-115.2-222.4-89.6-89.6-214.4-150.4-347.2-176v-120c0-25.6-8-51.2-25.6-64-33.6-30.4-81.6-30.4-112-4.8L33.6 441.6C12.8 459.2 0 484.8 0 510.4c0 25.6 12.8 51.2 30.4 68.8L416 891.2c17.6 12.8 33.6 17.6 51.2 17.6 12.8 0 25.6-4.8 38.4-8 30.4-12.8 46.4-43.2 46.4-76.8v-99.2c124.8 20.8 248 86.4 339.2 140.8 25.6 17.6 59.2 17.6 89.6 0 25.6-17.6 43.2-46.4 43.2-76.8 0-33.6 0-56-4.8-68.8z m-500.8-89.6l-46.4-4.8v193.6L86.4 510.4l385.6-308.8V400l38.4 4.8c128 12.8 248 68.8 334.4 153.6 51.2 56 76.8 102.4 94.4 179.2 0 4.8 4.8 20.8 4.8 51.2-108.8-68.8-272-148.8-425.6-158.4z" p-id="3249" fill="#515151"></path></svg>